<?xml version="1.0" encoding="UTF-8" standalone="no"?>
<svg width="256px" height="256px" viewBox="0 0 256 256" version="1.1" xmlns="http://www.w3.org/2000/svg" xmlns:xlink="http://www.w3.org/1999/xlink">
    <g stroke="none" stroke-width="1" fill="none" fill-rule="evenodd">
        <rect fill="#5E2EBA" x="0" y="0" width="256" height="256" rx="28"></rect>
        <g transform="translate(32.000000, 32.000000)" fill="#FFFFFF">
            <path d="M96,0 C148.856,0 192,43.144 192,96 C192,148.856 148.856,192 96,192 C43.144,192 0,148.856 0,96 C0,43.144 43.144,0 96,0 Z M96,24 C56.2656,24 24,56.2656 24,96 C24,135.734 56.2656,168 96,168 C135.734,168 168,135.734 168,96 C168,56.2656 135.734,24 96,24 Z"></path>
            <circle cx="60" cy="76" r="12"></circle>
            <circle cx="132" cy="76" r="12"></circle>
            <circle cx="60" cy="116" r="12"></circle>
            <circle cx="132" cy="116" r="12"></circle>
            <circle cx="96" cy="76" r="12"></circle>
            <circle cx="96" cy="116" r="12"></circle>
        </g>
    </g>
</svg>